<svg width="1441" height="233" viewBox="0 0 1441 233" fill="none" xmlns="http://www.w3.org/2000/svg">
<path d="M78.8053 228.432L0.644531 6.23047H41.1667L101.039 184.321L161.14 6.23047H201.358L123.198 228.432H78.8053Z" fill="white"/>
<path d="M222.609 39.5579C213.882 30.6459 213.882 17.3153 222.609 8.77776C231.259 -0.134255 245.45 -0.134255 254.101 8.77776C262.751 17.3153 262.751 30.7208 253.797 39.5579C245.146 48.0955 231.639 48.0955 222.609 39.5579ZM221.015 228.433V69.6641H255.77V228.433H221.015Z" fill="white"/>
<path d="M319.74 228.435V102.768H284.227V69.7411H319.74V25.2559H354.495V69.6662H388.491V102.693H354.495V228.435H319.74Z" fill="white"/>
<path d="M545.108 69.7401H579.863V228.509H545.108V205.667C531.904 223.791 513.237 232.628 488.802 232.628C466.644 232.628 447.976 224.689 432.192 208.513C416.408 192.336 408.744 172.341 408.744 149.124C408.744 125.609 416.484 105.912 432.192 89.736C447.976 73.5595 466.644 65.6211 488.802 65.6211C513.237 65.6211 531.904 74.5331 545.108 92.2823V69.7401ZM494.266 199.9C508.76 199.9 520.977 195.107 530.614 185.596C540.252 175.786 545.108 163.728 545.108 149.05C545.108 134.371 540.252 122.388 530.614 112.877C520.977 103.067 508.76 98.2735 494.266 98.2735C479.772 98.2735 467.554 103.067 457.917 112.877C448.28 122.388 443.423 134.446 443.423 149.05C443.423 163.653 448.28 175.711 457.917 185.596C467.554 195.107 479.848 199.9 494.266 199.9Z" fill="white"/>
<path d="M708.342 6.23047C739.227 6.23047 764.951 17.0148 785.213 38.2838C805.777 59.5528 816.098 85.9144 816.098 117.369C816.098 148.448 805.777 174.81 785.213 196.453C764.951 217.722 739.227 228.507 708.342 228.507H619.86V6.23047H708.342ZM708.342 193.533C729.589 193.533 746.967 186.268 760.171 171.964C773.678 157.66 780.432 139.237 780.432 117.369C780.432 95.1259 773.678 77.0772 760.171 62.7731C746.967 48.4689 729.589 41.2045 708.342 41.2045H656.892V193.607H708.342V193.533Z" fill="white"/>
<path d="M960.204 149.422L924.539 49.0681L888.797 149.422L876.58 183.647L860.796 228.432H820.577L902.305 6.23047H946.697L1028.12 228.432H988.206L972.422 183.647" fill="white"/>
<path d="M1149.38 232.551C1116.9 232.551 1089.2 221.467 1066.36 199.224C1043.82 176.682 1032.59 149.347 1032.59 117.294C1032.59 85.2403 1043.82 57.9051 1066.36 35.7374C1089.2 13.1952 1116.9 2.11133 1149.38 2.11133C1181.85 2.11133 1209.55 13.1952 1232.01 35.7374C1254.86 57.98 1266.09 85.2403 1266.09 117.294C1266.09 149.347 1254.86 176.682 1232.01 199.224C1209.55 221.467 1181.85 232.551 1149.38 232.551ZM1149.38 197.052C1171.91 197.052 1190.88 189.414 1205.99 174.51C1221.39 159.307 1229.13 140.21 1229.13 117.368C1229.13 94.5267 1221.39 75.4295 1205.99 60.5263C1190.88 45.3234 1171.91 37.6845 1149.38 37.6845C1126.84 37.6845 1107.87 45.3234 1092.46 60.5263C1077.36 75.4295 1069.62 94.5267 1069.62 117.368C1069.62 140.21 1077.36 159.307 1092.46 174.51C1107.87 189.414 1126.84 197.052 1149.38 197.052Z" fill="white"/>
<path d="M1312.99 5.18404L1314.44 6.15762C1340.54 24.3561 1375.45 24.3561 1401.48 6.00784C1423.03 -9.12013 1450.34 15.2194 1437.22 37.9114L1392.45 115.274C1377.04 141.935 1338.11 141.935 1322.63 115.274L1277.4 37.0876C1264.28 14.5454 1291.44 -9.86904 1312.99 5.18404Z" fill="#FFDD35"/>
</svg>
