<svg width="16" height="16" viewBox="0 0 16 16" fill="none" xmlns="http://www.w3.org/2000/svg">
<path fill-rule="evenodd" clip-rule="evenodd" d="M7.76537 0.887393C7.90804 0.815572 8.0767 0.815557 8.21937 0.887189L14.8874 4.22846C15.058 4.3143 15.1667 4.48955 15.1667 4.68144V7.17269H13.8334V11.8361H14.6667C14.7994 11.8361 14.9267 11.8888 15.02 11.9826C15.114 12.0764 15.1667 12.2035 15.1667 12.3362V14.6681C15.1667 14.9442 14.9427 15.1681 14.6667 15.1681H1.33337C1.05737 15.1681 0.833374 14.9442 0.833374 14.6681V12.3361C0.833374 12.06 1.05737 11.8361 1.33337 11.8361H2.16671V7.17269H0.833374V4.68144C0.833374 4.48976 0.941378 4.31461 1.11271 4.22866L7.76537 0.887393ZM7.99271 1.89211L1.83337 4.98572V6.17269H14.1667V4.98603L7.99271 1.89211ZM12.8334 7.17269H11.1667V11.8361H12.8334V7.17269ZM10.1667 7.17269H5.83337V11.8361H10.1667V7.17269ZM4.83337 7.17269H3.16671V11.8361H4.83337V7.17269ZM7.33071 4.00928H8.67004V5.34261H7.33071V4.00928ZM1.83337 12.8361V14.1681H14.1667V12.8361H1.83337Z" fill="white"/>
</svg>
