<svg width="14" height="13" viewBox="0 0 14 13" fill="none" xmlns="http://www.w3.org/2000/svg">
<path d="M1.5 11.5H13V12.5H1C0.723858 12.5 0.5 12.2761 0.5 12V0H1.5V11.5ZM4.99512 0.833008C5.58002 0.833008 6.07772 0.982809 6.49414 1.26172C6.90526 1.53709 7.20886 1.91877 7.44238 2.34082C7.87685 3.12617 8.11492 4.14357 8.33496 5.08105C8.34576 5.12705 8.35744 5.17317 8.36816 5.21875C8.4102 5.39736 8.45366 5.57247 8.49609 5.74414V5.5H9.50195V6.5H8.69824C8.84696 7.0014 9.01633 7.45192 9.24121 7.8252C9.43725 8.15059 9.66335 8.39761 9.93359 8.56445C10.2005 8.7292 10.5386 8.83301 10.9883 8.83301C11.674 8.83297 12.148 8.42347 12.5762 7.73535L13.4248 8.26465C12.9273 9.06399 12.1898 9.83296 10.9883 9.83301C10.3737 9.83301 9.84983 9.68768 9.4082 9.41504C8.96996 9.14447 8.64054 8.76623 8.38477 8.3418C7.9605 7.63759 7.71143 6.75074 7.50391 5.89844V6.5H6.49805V5.5H7.40723C7.40315 5.48268 7.39859 5.4655 7.39453 5.44824C7.38927 5.42588 7.38414 5.40312 7.37891 5.38086C7.14402 4.38242 6.93318 3.48642 6.56738 2.8252C6.38602 2.49737 6.17948 2.25485 5.9375 2.09277C5.70072 1.93418 5.40073 1.83301 4.99512 1.83301C4.31576 1.83315 3.83946 2.23985 3.42871 2.92383L2.57129 2.40918C3.05837 1.59805 3.80065 0.833161 4.99512 0.833008ZM3.50586 6.5H2.5V5.5H3.50586V6.5ZM5.50488 6.5H4.49902V5.5H5.50488V6.5ZM11.501 6.5H10.4951V5.5H11.501V6.5ZM13.5 6.5H12.4941V5.5H13.5V6.5Z" fill="white"/>
</svg>
