<svg width="16" height="16" viewBox="0 0 16 16" fill="none" xmlns="http://www.w3.org/2000/svg">
<path d="M5.57033 2.79144C1.89182 4.40018 1.01729 9.44587 3.81838 12.2211C6.67094 15.0472 11.6725 13.9893 13.2051 10.3578L14.127 10.7465C12.3241 15.019 6.47949 16.264 3.11526 12.9311C-0.179339 9.66709 0.83323 3.77186 5.16994 1.87542L5.57033 2.79144ZM7.62502 1.19085C9.48267 1.03763 11.4191 1.61766 12.8838 3.06878C14.3463 4.5177 14.9552 6.48116 14.8125 8.37151L14.7774 8.83343H7.16604V1.22894L7.62502 1.19085ZM8.16604 7.83343H13.833C13.8329 6.35536 13.2959 4.88557 12.1797 3.77972C11.0611 2.67153 9.61331 2.15813 8.16604 2.16741V7.83343Z" fill="white"/>
</svg>
